<?xml version="1.0" standalone="no"?><!-- Generator: Gravit.io --><svg xmlns="http://www.w3.org/2000/svg" xmlns:xlink="http://www.w3.org/1999/xlink" style="isolation:isolate" viewBox="-4 -39.85000000000002 474 182.85000000000002" width="474" height="182.85000000000002"><g style="isolation:isolate"/><g style="isolation:isolate"><path d=" M 75.8 51.64999999999998 L 99.5 51.64999999999998 L 99.5 93.49999999999997 Q 91.1 99.64999999999998 78.875 103.47499999999997 Q 66.64999999999999 107.29999999999995 55.699999999999996 107.29999999999995 Q 39.8 107.29999999999995 26.974999999999998 100.17499999999995 Q 14.149999999999999 93.04999999999995 6.799999999999999 80.59999999999997 Q -0.5500000000000003 68.14999999999998 -0.5500000000000003 52.69999999999996 Q -0.5500000000000003 37.39999999999996 7.025 25.024999999999963 Q 14.599999999999998 12.649999999999963 27.875 5.599999999999966 Q 41.15 -1.4500000000000313 57.5 -1.4500000000000313 Q 69.2 -1.4500000000000313 80.89999999999999 2.8249999999999744 Q 92.6 7.099999999999966 100.7 14.299999999999969 L 85.1 33.49999999999997 Q 79.39999999999999 28.099999999999966 71.975 24.949999999999974 Q 64.55 21.79999999999997 57.349999999999994 21.79999999999997 Q 48.949999999999996 21.79999999999997 42.199999999999996 25.849999999999966 Q 35.449999999999996 29.899999999999963 31.549999999999997 36.949999999999974 Q 27.65 43.99999999999997 27.65 52.69999999999996 Q 27.65 61.54999999999997 31.549999999999997 68.67499999999997 Q 35.449999999999996 75.79999999999997 42.35 79.84999999999997 Q 49.25 83.89999999999996 57.65 83.89999999999996 Q 65.6 83.89999999999996 75.8 78.79999999999997 L 75.8 51.64999999999998 Z " fill="rgb(0,113,214)"/></g><path d=" M 306.35 105.34999999999997 L 291.05 76.24999999999997 L 290.45 76.24999999999997 L 270.65 76.24999999999997 L 270.65 105.34999999999997 L 243.2 105.34999999999997 L 243.2 0.19999999999997442 L 290.45 0.19999999999997442 Q 311.3 0.19999999999997442 322.775 9.874999999999972 Q 334.25 19.54999999999997 334.25 37.099999999999966 Q 334.25 48.94999999999996 329.45 57.57499999999996 Q 324.65 66.19999999999996 315.5 70.99999999999997 L 337.4 105.34999999999997 L 306.35 105.34999999999997 Z  M 270.65 54.349999999999966 L 290.6 54.349999999999966 Q 299 54.349999999999966 303.575 50.14999999999998 Q 308.15 45.94999999999996 308.15 37.99999999999997 Q 308.15 30.349999999999966 303.575 26.224999999999966 Q 299 22.099999999999966 290.6 22.099999999999966 L 270.65 22.099999999999966 L 270.65 54.349999999999966 Z  M 377.45 61.99999999999997 Q 377.45 71.89999999999998 383.29999999999995 77.89999999999996 Q 389.15 83.89999999999996 398.15 83.89999999999996 Q 407 83.89999999999996 412.475 77.97499999999997 Q 417.95 72.04999999999997 417.95 61.99999999999997 L 417.95 0.19999999999997442 L 445.4 0.19999999999997442 L 445.4 61.99999999999997 Q 445.4 75.64999999999996 439.625 85.92499999999997 Q 433.85 96.19999999999996 423.125 101.74999999999997 Q 412.4 107.29999999999995 398 107.29999999999995 Q 383.6 107.29999999999995 372.725 101.74999999999997 Q 361.85 96.19999999999996 355.925 85.92499999999997 Q 350 75.64999999999996 350 61.99999999999997 L 350 0.19999999999997442 L 377.45 0.19999999999997442 L 377.45 61.99999999999997 Z " fill-rule="evenodd" fill="rgb(0,113,214)"/><path d=" M 153.85 61.999999999999986 Q 153.85 71.89999999999999 159.7 77.89999999999998 Q 165.55 83.89999999999998 174.55 83.89999999999998 Q 183.39999999999998 83.89999999999998 188.875 77.97499999999998 Q 194.35 72.04999999999998 194.35 61.999999999999986 L 194.35 0.19999999999998863 L 221.8 0.19999999999998863 L 221.8 61.999999999999986 Q 221.8 75.64999999999998 216.02499999999998 85.92499999999998 Q 210.25 96.19999999999997 199.52499999999998 101.74999999999999 Q 188.8 107.29999999999997 174.4 107.29999999999997 Q 160 107.29999999999997 149.125 101.74999999999999 Q 138.25 96.19999999999997 132.325 85.92499999999998 Q 126.4 75.64999999999998 126.4 61.999999999999986 L 126.4 0.19999999999998863 L 153.85 0.19999999999998863 L 153.85 61.999999999999986 Z " fill="rgb(0,113,214)"/><g style="isolation:isolate"><path d=" M 222.11969111969032 35.33918918918767 L 221.94015444015363 35.33918918918767 L 221.94015444015363 35.518725868724346 L 221.76061776061695 35.518725868724346 L 221.76061776061695 35.518725868724346 L 221.76061776061695 35.69826254826103 L 221.76061776061695 35.69826254826103 L 221.76061776061695 35.69826254826103 L 221.58108108108027 35.69826254826103 L 221.58108108108027 35.69826254826103 L 221.58108108108027 35.87779922779771 L 221.4015444015436 35.87779922779771 L 221.4015444015436 35.87779922779771 L 221.4015444015436 36.05733590733439 L 221.04247104247025 36.05733590733439 L 220.86293436293357 36.05733590733439 L 220.86293436293357 35.87779922779771 L 221.04247104247025 35.69826254826103 L 221.04247104247025 35.518725868724346 L 221.04247104247025 35.33918918918767 L 221.2220077220069 35.33918918918767 L 221.2220077220069 35.33918918918767 L 221.2220077220069 35.15965250965099 L 221.4015444015436 35.15965250965099 L 221.4015444015436 35.15965250965099 L 221.4015444015436 34.98011583011431 L 221.4015444015436 34.98011583011431 L 221.4015444015436 34.98011583011431 L 221.58108108108027 34.80057915057763 L 221.76061776061695 34.62104247104095 L 221.76061776061695 34.62104247104095 L 221.76061776061695 34.62104247104095 L 221.76061776061695 34.44150579150427 Q 221.76061776061695 34.44150579150427 222.299227799227 34.08243243243091 Q 222.65830115830036 33.543822393820875 224.0945945945938 32.825675675674155 Q 225.53088803088724 32.107528957527435 227.14671814671735 32.107528957527435 Q 228.94208494208414 32.107528957527435 230.01930501930423 32.64613899613747 Q 231.27606177606097 33.18474903474751 232.71235521235442 34.261969111967595 Q 233.96911196911117 35.33918918918767 235.22586872586794 36.955019305017785 Q 236.48262548262468 38.5708494208479 237.02123552123473 40.366216216214696 Q 237.55984555984477 42.34111969111817 237.55984555984477 44.31602316602165 Q 237.55984555984477 46.4704633204618 237.02123552123473 48.2658301158286 Q 236.48262548262468 50.24073359073207 235.04633204633126 52.21563706563555 Q 233.96911196911117 54.190540540539025 232.53281853281774 55.44729729729578 Q 231.0965250965243 56.704054054052534 228.76254826254745 57.96081081080929 Q 226.42857142857062 59.39710424710273 223.3764478764471 60.11525096524945 Q 220.32432432432353 61.19247104246953 216.73359073358995 61.551544401542884 Q 213.32239382239302 61.91061776061625 208.833976833976 61.551544401542884 Q 204.16602316602234 61.551544401542884 199.13899613899534 60.47432432432281 Q 194.1119691119683 59.39710424710273 189.803088803088 57.96081081080929 Q 185.49420849420767 56.52451737451586 182.26254826254745 54.729150579149064 Q 179.21042471042392 52.93378378378227 177.5945945945938 51.49749034748883 Q 175.79922779922697 50.061196911195395 175.44015444015363 49.881660231658714 Q 175.08108108108027 49.70212355212203 174.36293436293357 50.24073359073207 Q 173.82432432432353 50.779343629342115 171.49034749034666 52.57471042470891 Q 169.15637065636986 54.3700772200757 165.92471042470962 55.80637065636914 Q 162.69305019304937 57.24266409266258 158.2046332046324 58.67895752895601 Q 153.89575289575208 60.11525096524945 148.5096525096517 61.012934362932846 Q 143.1235521235513 61.91061776061625 139.5328185328177 62.09015444015292 Q 136.12162162162082 62.269691119689604 134.50579150579068 61.91061776061625 Q 132.88996138996058 61.91061776061625 129.47876447876365 61.012934362932846 Q 125.88803088803007 60.11525096524945 123.37451737451656 59.038030888029375 Q 121.04054054053972 57.96081081080929 119.4247104247096 56.883590733589216 Q 117.8088803088795 55.44729729729578 116.55212355212274 53.83146718146566 Q 115.1158301158293 52.036100386098866 114.39768339768258 49.881660231658714 Q 113.67953667953586 47.72722007721856 113.49999999999918 45.39324324324173 Q 113.3204633204625 43.23880308880157 113.67953667953586 41.802509652508135 Q 114.03861003860922 40.54575289575138 114.75675675675593 38.75038610038458 Q 115.83397683397601 36.955019305017785 116.37258687258606 36.41640926640775 Q 117.09073359073277 35.69826254826103 117.09073359073277 35.518725868724346 Q 117.09073359073277 35.33918918918767 117.44980694980613 35.15965250965099 Q 117.8088803088795 34.98011583011431 119.4247104247096 34.08243243243091 Q 121.04054054053972 33.18474903474751 123.0154440154432 33.18474903474751 Q 125.16988416988335 33.18474903474751 126.60617760617679 33.72335907335756 L 128.04247104247023 34.261969111967595 L 128.04247104247023 34.44150579150427 L 128.04247104247023 34.44150579150427 L 128.2220077220069 34.44150579150427 L 128.2220077220069 34.62104247104095 L 128.2220077220069 34.62104247104095 L 128.4015444015436 34.62104247104095 L 128.4015444015436 34.62104247104095 L 128.4015444015436 34.62104247104095 L 128.58108108108027 34.80057915057763 L 128.76061776061695 34.98011583011431 L 128.76061776061695 34.98011583011431 L 128.76061776061695 34.98011583011431 L 128.9401544401536 34.98011583011431 L 128.9401544401536 34.98011583011431 L 128.9401544401536 35.15965250965099 L 129.1196911196903 35.15965250965099 L 129.1196911196903 35.33918918918767 L 129.1196911196903 35.518725868724346 L 128.76061776061695 35.518725868724346 L 128.2220077220069 35.33918918918767 L 128.04247104247023 35.33918918918767 L 127.86293436293354 35.33918918918767 L 127.86293436293354 35.15965250965099 L 127.68339768339686 35.15965250965099 L 127.68339768339686 35.15965250965099 L 127.68339768339686 34.98011583011431 L 126.96525096525015 34.98011583011431 Q 126.42664092664012 34.62104247104095 124.99034749034666 34.80057915057763 Q 123.55405405405324 34.98011583011431 122.47683397683316 35.69826254826103 Q 121.57915057914977 36.59594594594443 120.86100386100304 37.85270270270118 Q 120.14285714285633 39.10945945945794 120.14285714285633 41.44343629343477 Q 120.14285714285633 43.95694980694829 120.86100386100304 44.85463320463169 Q 121.39961389961309 45.752316602315084 122.29729729729648 46.29092664092512 Q 123.19498069497988 46.82953667953516 124.81081081080998 46.82953667953516 Q 126.60617760617679 46.82953667953516 129.1196911196903 45.752316602315084 Q 131.8127413127405 44.67509652509501 135.94208494208414 42.34111969111817 Q 140.25096525096444 40.00714285714134 144.38030888030806 37.49362934362782 Q 148.68918918918837 34.98011583011431 151.74131274131193 33.543822393820875 Q 154.97297297297217 32.107528957527435 157.1274131274123 31.74845559845408 Q 159.46138996138916 31.03030888030736 162.333976833976 31.20984555984404 Q 165.2065637065629 31.389382239380716 167.8996138996131 32.107528957527435 Q 170.59266409266328 33.18474903474751 172.56756756756675 34.44150579150427 Q 174.7220077220069 35.69826254826103 174.9015444015436 35.87779922779771 Q 175.08108108108027 36.05733590733439 177.05598455598374 34.62104247104095 Q 179.03088803088724 33.18474903474751 181.7239382239374 32.4666023166008 Q 184.4169884169876 31.389382239380716 185.67374517374435 31.389382239380716 Q 186.93050193050112 31.03030888030736 190.16216216216134 31.20984555984404 Q 193.3938223938216 31.389382239380716 195.9073359073351 31.92799227799076 Q 198.24131274131193 32.4666023166008 201.65250965250885 34.261969111967595 Q 205.06370656370575 36.05733590733439 211.52702702702624 40.366216216214696 Q 217.9903474903467 44.67509652509501 220.32432432432353 45.39324324324173 Q 222.47876447876368 46.4704633204618 224.45366795366715 46.4704633204618 Q 226.42857142857062 46.4704633204618 227.86486486486407 45.752316602315084 Q 229.3011583011575 45.034169884168364 230.01930501930423 44.31602316602165 Q 230.73745173745093 43.41833976833825 230.73745173745093 41.2638996138981 Q 230.73745173745093 39.10945945945794 230.01930501930423 37.85270270270118 Q 229.3011583011575 36.59594594594443 228.4034749034741 35.69826254826103 Q 227.5057915057907 34.98011583011431 226.78764478764398 34.62104247104095 Q 225.88996138996058 34.261969111967595 224.63320463320383 34.261969111967595 Q 223.55598455598374 34.261969111967595 222.83783783783704 34.80057915057763 Q 222.299227799227 35.33918918918767 222.11969111969032 35.33918918918767 Z " fill-rule="evenodd" fill="rgb(214,0,116)"/></g></svg>