<svg xmlns="http://www.w3.org/2000/svg" viewBox="0 0 352.97 144.48"><defs><style>.cls-1{font-size:130px;font-family:ArchivoBlack-Regular, Archivo Black;}.cls-1,.cls-3{fill:#1f2b31;}.cls-2{letter-spacing:-0.03em;}.cls-4{fill:#e535ab;}.cls-5{fill:none;stroke:#282828;stroke-miterlimit:10;stroke-width:3px;}</style></defs><title>graphql-fake</title><g id="Layer_2" data-name="Layer 2"><g id="Layer_1-2" data-name="Layer 1"><text class="cls-1" transform="translate(0 109.72)">F</text><text class="cls-1" transform="translate(184 109.76)"><tspan class="cls-2">k</tspan><tspan x="82.27" y="0">e</tspan></text></g><g id="Layer_2-2" data-name="Layer 2"><polygon class="cls-3" points="104.41 88.77 100.63 86.24 130.23 34.97 134.31 36.98 104.41 88.77"/><polygon class="cls-3" points="106.67 92.28 165.83 92.28 163.83 96.92 106.17 96.92 106.67 92.28"/><polygon class="cls-4" points="138.18 120.23 104.41 100.73 107.55 97.31 140.45 116.3 138.18 120.23"/><polygon class="cls-4" points="176.21 54.36 142.69 35.01 145.59 31.44 178.48 50.43 176.21 54.36"/><polygon class="cls-4" points="96.69 54.34 94.42 50.41 127.28 31.44 130.23 34.97 96.69 54.34"/><polygon class="cls-3" points="167.91 87.76 138.72 37.19 142.69 35.01 172.22 86.14 167.91 87.76"/><polygon class="cls-4" points="95.98 47.47 100.63 47.47 100.63 86.24 95.98 85.44 95.98 47.47"/><polygon class="cls-4" points="172.22 47.47 176.86 47.47 176.86 86.68 172.22 86.14 172.22 47.47"/><polygon class="cls-4" points="137.41 118.31 135.43 114.88 165.42 97.56 167.48 100.95 137.41 118.31"/><path class="cls-5" d="M182.76,99.43a9.54,9.54,0,1,1-3.5-13,9.55,9.55,0,0,1,3.5,13"/><path class="cls-4" d="M106.64,55.46a9.54,9.54,0,1,1-3.5-13,9.55,9.55,0,0,1,3.5,13"/><path class="cls-5" d="M90.13,99.43a9.54,9.54,0,1,1,13,3.5,9.56,9.56,0,0,1-13-3.5"/><path class="cls-4" d="M166.26,55.46a9.54,9.54,0,1,1,13,3.5,9.56,9.56,0,0,1-13-3.5"/><path class="cls-4" d="M136.45,126.18a9.54,9.54,0,1,1,9.54-9.54,9.53,9.53,0,0,1-9.54,9.54"/><path class="cls-5" d="M136.45,38.25A9.54,9.54,0,1,1,146,28.71a9.53,9.53,0,0,1-9.54,9.54"/></g></g></svg>